<svg width="142" height="48" viewBox="0 0 142 48" fill="none" preserveAspectRatio="none" xmlns="http://www.w3.org/2000/svg">
<path fill-rule="evenodd" clip-rule="evenodd" d="M0 23.9708C0 18.5555 0 15.8478 0.94353 13.2234C2.27069 9.53202 5.60077 5.85993 9.14529 4.17935C11.6652 2.98457 14.1035 2.74582 18.9801 2.26831C30.771 1.11378 48.0842 0 71 0C93.9158 0 111.229 1.11378 123.02 2.26832C127.897 2.74582 130.335 2.98457 132.855 4.17935C136.399 5.85994 139.729 9.53202 141.056 13.2234C142 15.8478 142 18.5555 142 23.9708V23.9708C142 29.4164 142 32.1392 141.056 34.7638C139.726 38.4634 136.406 42.124 132.853 43.8081C130.333 45.0027 127.875 45.2431 122.96 45.7239C111.127 46.8812 93.7934 48 71 48C48.2066 48 30.873 46.8812 19.0401 45.7239C14.1245 45.2431 11.6668 45.0027 9.14652 43.8081C5.59397 42.124 2.27389 38.4634 0.943672 34.7638C0 32.1392 0 29.4164 0 23.9708V23.9708Z" fill="url(#paint0_linear)"/>
<defs>
<linearGradient id="paint0_linear" x1="0" y1="0" x2="0" y2="48" gradientUnits="userSpaceOnUse">
<stop stop-color="#007AFF"/>
<stop offset="1" stop-color="#0657AF"/>
</linearGradient>
</defs>
</svg>
