<svg xmlns="http://www.w3.org/2000/svg" xmlns:xlink="http://www.w3.org/1999/xlink" width="142" height="56" viewBox="0 0 142 56" preserveAspectRatio="none"><defs><linearGradient x1="44.587" x2="44.587" y2="89.174" id="b" gradientTransform="scale(1.5924 .62799)" gradientUnits="userSpaceOnUse"><stop stop-color="#007AFF" offset="0%"/><stop stop-color="#0657AF" offset="100%"/></linearGradient><path d="M13.787 3.07C28.445 1.023 47.517 0 71 0c23.484 0 42.555 1.023 57.213 3.07A16 16 0 0 1 142 18.917v18.147a16 16 0 0 1-13.79 15.847C113.449 54.97 94.379 56 71 56s-42.448-1.03-57.21-3.09A16 16 0 0 1 0 37.065V18.917A16 16 0 0 1 13.787 3.07z" id="a"/></defs><use height="100%" width="100%" xlink:href="#a" fill="url(#b)" fill-rule="evenodd"/></svg>