<svg xmlns="http://www.w3.org/2000/svg" xmlns:xlink="http://www.w3.org/1999/xlink" width="240" height="72" viewBox="0 0 240 72" preserveAspectRatio="none"><defs><linearGradient x1="70.108" y1="14.606" x2="70.108" y2="146.059" id="b" gradientTransform="scale(1.82574 .54772)" gradientUnits="userSpaceOnUse"><stop stop-color="#007AFF" offset="0%"/><stop stop-color="#0657AF" offset="100%"/></linearGradient><path d="M21.93 13.052C47.74 9.684 83.098 8 128 8c44.902 0 80.259 1.684 106.07 5.052A16 16 0 0 1 248 28.918V59.06a16 16 0 0 1-13.94 15.867C208.002 78.309 172.65 80 128 80c-44.65 0-80.003-1.69-106.06-5.072A16 16 0 0 1 8 59.06V28.918a16 16 0 0 1 13.93-15.866z" id="a"/></defs><use height="100%" width="100%" xlink:href="#a" transform="translate(-8 -8)" fill="url(#b)" fill-rule="evenodd"/></svg>